<?xml version="1.0" encoding="UTF-8" standalone="no"?>
<!-- Created with Inkscape (http://www.inkscape.org/) -->

<svg
   xmlns:dc="http://purl.org/dc/elements/1.1/"
   xmlns:cc="http://creativecommons.org/ns#"
   xmlns:rdf="http://www.w3.org/1999/02/22-rdf-syntax-ns#"
   xmlns:svg="http://www.w3.org/2000/svg"
   xmlns="http://www.w3.org/2000/svg"
   xmlns:sodipodi="http://sodipodi.sourceforge.net/DTD/sodipodi-0.dtd"
   xmlns:inkscape="http://www.inkscape.org/namespaces/inkscape"
   version="1.1"
   id="svg10"
   width="3000"
   height="719"
   viewBox="0 0 3000 719"
   sodipodi:docname="gun_animat_04.svg"
   inkscape:version="0.92.3 (2405546, 2018-03-11)">
  <metadata
     id="metadata16">
    <rdf:RDF>
      <cc:Work
         rdf:about="">
        <dc:format>image/svg+xml</dc:format>
        <dc:type
           rdf:resource="http://purl.org/dc/dcmitype/StillImage" />
        <dc:title></dc:title>
      </cc:Work>
    </rdf:RDF>
  </metadata>
  <defs
     id="defs14" />
  <sodipodi:namedview
     pagecolor="#ff00ff"
     bordercolor="#666666"
     borderopacity="1"
     objecttolerance="10"
     gridtolerance="10"
     guidetolerance="10"
     inkscape:pageopacity="0"
     inkscape:pageshadow="2"
     inkscape:window-width="1366"
     inkscape:window-height="705"
     id="namedview12"
     showgrid="false"
     inkscape:zoom="0.25825281"
     inkscape:cx="1752.5981"
     inkscape:cy="96.007109"
     inkscape:window-x="-8"
     inkscape:window-y="-8"
     inkscape:window-maximized="1"
     inkscape:current-layer="svg10" />
  <path
     style="fill:#ffffff;stroke-width:1.36902046"
     d=""
     id="path3728"
     inkscape:connector-curvature="0" />
  <path
     style="fill:#ffffff;stroke-width:1.36902046"
     d=""
     id="path3734"
     inkscape:connector-curvature="0" />
  <path
     style="fill:#ffffff;stroke-width:1.36902046"
     d=""
     id="path3738"
     inkscape:connector-curvature="0" />
  <path
     style="fill:#ffffff;stroke-width:0.68451023"
     d=""
     id="path3744"
     inkscape:connector-curvature="0" />
  <path
     style="fill:#ffffff;stroke-width:0.68451023"
     d=""
     id="path3750"
     inkscape:connector-curvature="0" />
  <path
     style="fill:#ffffff;stroke-width:0.68451023"
     d=""
     id="path3768"
     inkscape:connector-curvature="0" />
  <path
     style="fill:#ffffff;stroke-width:0.68451023"
     d=""
     id="path3776"
     inkscape:connector-curvature="0" />
  <path
     style="fill:#ffffff;stroke-width:0.68451023"
     d=""
     id="path3786"
     inkscape:connector-curvature="0" />
  <g
     id="g3841"
     transform="rotate(28.940189,434.78739,-23.454254)">
    <path
       inkscape:connector-curvature="0"
       id="path3724"
       d="m 469.87426,717.00727 c -7.0193,-2.04159 -10.48291,-6.97873 -24.91427,-35.51365 -18.15787,-35.90325 -21.64476,-42.08326 -35.91795,-63.65945 -22.21094,-33.57533 -44.44781,-61.14413 -62.70188,-77.73639 l -4.1908,-3.80928 -15.4345,10.31212 c -8.48898,5.67168 -16.76218,10.31214 -18.3849,10.31214 -1.62272,0 -5.24962,-1.56236 -8.05977,-3.47191 -4.49447,-3.05406 -5.10937,-4.1426 -5.10937,-9.0449 0,-4.44287 1.11047,-6.96768 5.47608,-12.45066 3.01185,-3.78272 5.47608,-7.4285 5.47608,-8.10174 0,-3.89815 -13.05787,-4.85596 -30.94458,-2.2698 -14.20562,2.05391 -20.89333,0.42266 -24.97308,-6.0914 -3.23287,-5.16187 -8.9567,-13.25877 -25.40106,-35.93224 -11.10537,-15.31207 -11.8679,-16.79279 -11.34635,-22.03292 0.30752,-3.08972 3.9927,-12.63864 8.18928,-21.21982 8.68858,-17.76645 12.70917,-29.77057 13.93779,-41.61354 1.06862,-10.30079 7.59152,-30.73699 14.55505,-45.60088 2.93106,-6.25646 5.3292,-11.83975 5.3292,-12.40731 0,-0.56757 -1.80342,-2.75972 -4.00759,-4.87146 -5.89709,-5.64975 -7.68216,-10.75324 -5.55634,-15.88543 3.7662,-9.09242 12.99857,-12.0233 21.51558,-6.83029 l 4.42205,2.69621 22.95836,-23.09033 c 36.45727,-36.66682 44.46768,-41.09604 55.90843,-30.91363 2.96039,2.63477 5.80518,4.79098 6.32178,4.79157 1.53637,0.001 22.86651,-27.18942 30.70007,-39.13575 10.9204,-16.65381 17.33842,-31.85557 24.51386,-58.06364 16.06077,-58.6615 25.21069,-77.740927 44.65197,-93.108378 8.7772,-6.937971 58.07371,-42.894076 73.74495,-53.788399 28.79161,-20.0153518 30.27534,-20.5054968 37.82866,-12.4966313 5.3864,5.7112363 5.62132,8.2116803 1.72729,18.3842993 -11.27463,29.453421 -10.42128,48.354661 3.0879,68.394731 23.47977,34.830838 64.14029,90.733618 66.53553,91.477428 3.63645,1.12925 1.32754,-3.71844 -8.6686,-18.20013 -23.41627,-33.92389 -24.26794,-36.04577 -17.27467,-43.03904 5.23285,-5.23284 12.10747,-5.6933 16.27782,-1.09028 1.53493,1.69416 8.4748,10.96561 15.42194,20.6032 15.10021,20.94815 18.6771,25.23406 19.97724,23.93708 0.54012,-0.53881 -2.29058,-5.77531 -6.29045,-11.63668 -18.58036,-27.22751 -21.83906,-32.4981 -21.83906,-35.32226 0,-3.98285 5.97521,-9.83617 11.21607,-10.98725 6.02904,-1.3242 9.31194,1.62415 24.94738,22.40512 7.46604,9.92308 13.85268,17.76388 14.19254,17.42404 0.33985,-0.33986 -4.12932,-7.83717 -9.93149,-16.66067 -5.80218,-8.82351 -11.0867,-17.45593 -11.74339,-19.18316 -2.60149,-6.84245 4.5078,-15.564042 12.68685,-15.564042 3.7666,0 7.03391,3.252822 17.87648,17.797262 10.70319,14.35748 15.64136,19.99084 16.65508,18.99978 0.47876,-0.46806 -4.0816,-8.25416 -10.13412,-17.30246 -6.05252,-9.0483 -11.00458,-17.799602 -11.00458,-19.447344 0,-4.753223 7.18023,-10.999402 12.64426,-10.999402 5.39524,0 8.36455,2.724023 18.65367,17.112756 3.76901,5.27073 7.84417,10.96617 9.05592,12.65653 2.06044,2.87426 2.41351,2.93559 5.44909,0.9466 1.78525,-1.16974 4.30969,-4.40094 5.60987,-7.18045 3.91922,-8.37845 7.41176,-12.505534 12.99191,-15.352306 19.97821,-10.192128 40.46405,10.162026 30.77373,30.575916 -3.29222,6.93548 -13.99709,13.22073 -22.62037,13.28132 -3.82642,0.0268 -7.40184,0.99766 -9.43662,2.56217 l -3.27602,2.51887 11.14789,16.17275 c 6.13134,8.89502 11.1479,17.55751 11.1479,19.24997 0,1.69248 -1.59491,4.97268 -3.54425,7.28933 -2.8111,3.3408 -4.61888,4.2121 -8.73933,4.2121 -5.91056,0 -8.83281,-2.7986 -21.94194,-21.01352 -4.14128,-5.75425 -7.99165,-10.4649 -8.55638,-10.46812 -3.02387,-0.0173 0.16189,5.56017 15.04343,26.33677 4.7147,6.58232 8.57218,12.92752 8.57218,14.10044 0,3.37434 -3.88387,9.99493 -6.76927,11.53916 -1.44863,0.77528 -4.71532,1.4096 -7.25932,1.4096 -5.50398,0 -7.62981,-2.07023 -21.29851,-20.74161 -5.31963,-7.26659 -10.42347,-13.67637 -11.34187,-14.24398 -2.05201,-1.26821 -2.41385,-1.87533 12.25031,20.55396 13.92977,21.30603 14.94077,23.63291 12.66028,29.13851 -3.16981,7.65261 -12.80337,9.93111 -18.67331,4.41657 -1.82844,-1.71771 -7.38018,-8.84473 -12.33721,-15.83781 -10.13336,-14.29555 -19.64845,-25.32842 -19.73304,-22.88072 -0.0539,1.56149 2.81844,5.96337 21.06097,32.2753 11.12136,16.04082 12.162,18.22365 11.14284,23.37302 -1.19039,6.01445 -6.25625,9.38372 -13.32148,8.86 -5.63651,-0.41781 -5.75985,-0.54705 -22.91266,-24.00801 -9.4851,-12.97336 -18.08161,-23.60038 -19.10338,-23.6156 -1.19503,-0.0178 -1.5367,0.80896 -0.95778,2.31761 1.44199,3.75776 21.10168,32.48333 62.05687,90.67378 14.55976,20.68695 15.42798,23.11666 10.35425,28.9764 -3.28469,3.79355 -14.93495,7.72827 -36.05459,12.17693 -11.8936,2.50528 -45.6284,3.32599 -58.86789,1.43216 -6.40017,-0.91551 -14.25384,-2.00218 -17.4526,-2.41483 l -5.81592,-0.75028 0.85435,8.17401 c 0.84021,8.03867 0.77141,8.25696 -4.1551,13.18348 -4.13697,4.13696 -5.98674,5.00945 -10.62058,5.00945 -3.33965,0 -7.52527,-1.18301 -10.33959,-2.92237 l -4.7285,-2.92236 -6.34606,7.37168 c -3.49034,4.05442 -10.50482,11.71291 -15.58773,17.01885 l -9.24169,9.64718 4.27083,10.88813 c 5.43253,13.84983 7.86462,24.96335 7.92544,36.21552 0.14573,26.96734 -11.30995,50.83568 -36.32887,75.69253 -7.09929,7.05329 -12.90778,13.45043 -12.90778,14.21587 0,0.76544 5.94451,10.57393 13.21002,21.79664 22.06593,34.08427 40.42877,63.78606 44.51866,72.00867 4.56631,9.18044 4.9268,16.1949 1.14664,22.31135 -8.76795,14.18683 -56.8567,50.06472 -84.88671,63.33198 -10.65192,5.04182 -14.45973,5.88619 -19.68747,4.36567 z m 9.62332,-38.81774 c -2.96862,-4.5307 -2.85294,-8.05344 0.35995,-10.96106 4.36219,-3.94774 9.97783,-2.34318 12.7927,3.65524 1.32502,2.82361 3.17436,5.12035 4.10963,5.10385 2.22817,-0.0393 35.23006,-23.29764 36.96875,-26.05401 1.01644,-1.6114 0.30779,-3.15784 -2.93142,-6.39703 -2.34955,-2.34956 -4.27191,-5.24339 -4.27191,-6.43076 0,-3.21694 5.02646,-7.63492 8.68645,-7.63492 1.76571,0 4.32542,1.23212 5.68827,2.73804 2.3448,2.59098 6.16059,3.74926 6.16059,1.87004 0,-1.31806 -10.76224,-22.15889 -14.50274,-28.08423 -1.81198,-2.87037 -3.29452,-5.52829 -3.29452,-5.90646 0,-3.65543 -52.44916,-81.53604 -62.0505,-92.13745 l -2.80738,-3.09981 -4.37708,4.24243 c -5.50617,5.33679 -9.75701,4.96963 -13.32128,-1.1506 l -2.60718,-4.47681 5.20117,-4.76408 c 4.60088,-4.21426 4.85707,-4.7641 2.21972,-4.7641 -1.6398,0 -6.84268,2.34071 -11.56195,5.20158 -4.71926,2.86087 -17.01,9.3215 -27.31273,14.35693 -10.30274,5.03544 -19.09052,9.73505 -19.52842,10.44359 -0.43791,0.70854 0.48017,1.69334 2.04016,2.18846 2.54013,0.80622 5.41754,5.56999 5.41754,8.96918 0,3.04076 -5.68903,6.75598 -10.34528,6.75598 -4.61287,0 -4.76717,0.14568 -2.931,2.76717 1.06601,1.52194 4.31578,5.33688 7.22172,8.47764 5.68398,6.14328 38.06764,49.40459 48.99474,65.45205 3.66362,5.38036 7.12274,9.26844 7.68691,8.64018 0.56419,-0.62825 1.73275,-5.14666 2.59683,-10.04091 3.68759,-20.88723 6.14127,-32.25603 7.22423,-33.47255 1.84035,-2.06735 1.35535,9.79079 -0.9211,22.52038 -4.28308,23.95037 -4.76623,26.91844 -4.76623,29.27904 0,1.33009 4.32224,11.14995 9.60498,21.82193 13.08323,26.43027 13.69504,27.45414 15.39124,25.75794 0.98357,-0.98357 0.7261,-2.48455 -0.83486,-4.86687 z m 8.44809,-5.23829 c -0.52392,-3.67233 -4.53039,-4.83607 -5.74574,-1.66894 -1.15577,3.0119 0.0928,4.73524 3.43075,4.73524 2.06823,0 2.64371,-0.76227 2.31499,-3.0663 z m 49.53178,-33.21274 c 1.32524,-1.59682 1.34026,-2.49215 0.0675,-4.02569 -2.04406,-2.46299 -5.54357,-1.2696 -5.54357,1.89045 0,4.3811 2.72904,5.4452 5.47608,2.13524 z M 384.14715,533.91321 c 0,-2.10829 0.72901,-4.56226 1.62001,-5.45326 2.31215,-2.31215 0.68134,-3.32083 -3.62256,-2.24062 -4.59947,1.1544 -5.73647,3.87624 -3.42411,8.19694 2.43211,4.54442 5.42666,4.26681 5.42666,-0.50306 z m 10.95217,0.41071 c 0,-2.47519 -0.73554,-3.42255 -2.65724,-3.42255 -1.46149,0 -3.05623,0.64556 -3.54388,1.43458 -1.46652,2.3729 0.45363,5.41052 3.42012,5.41052 2.05372,0 2.781,-0.89505 2.781,-3.42255 z m 128.62374,-22.24659 c 16.45653,-16.61607 23.64356,-27.77442 28.94537,-44.93971 6.79319,-21.99375 0.55822,-62.63252 -9.04401,-58.9478 -3.43667,1.31877 -3.94144,4.82389 -2.05872,14.29579 2.22113,11.17448 2.21384,29.39299 -0.0156,38.9054 -3.61728,15.43412 -12.72433,29.93803 -28.58052,45.51737 -9.68991,9.52074 -11.18614,12.39377 -8.07485,15.50506 3.4549,3.4549 7.21293,1.39187 18.8283,-10.33611 z m -241.22568,-0.49171 c 1.69416,-0.63348 3.0803,-1.88014 3.0803,-2.77033 0,-0.89019 -8.83597,-13.9967 -19.63548,-29.12557 -10.79952,-15.12887 -22.0426,-31.04208 -24.98463,-35.36268 -2.94203,-4.32061 -6.02373,-7.86295 -6.84824,-7.87186 -2.42052,-0.0261 -5.65133,4.30075 -9.51862,12.74801 l -3.61601,7.8984 3.61669,7.39225 c 3.91253,7.99693 23.14943,35.48475 30.04316,42.92902 2.33597,2.52253 5.47935,5.11466 6.98527,5.76029 2.95324,1.26614 15.8604,0.2785 20.87756,-1.59753 z m 15.40148,-2.61793 c 0,-4.57866 -56.42641,-83.4809 -59.70081,-83.4809 -2.75407,0 0.23578,5.6125 11.30405,21.21982 27.7969,39.19626 42.11767,59.14569 43.97834,61.26366 2.34231,2.66621 4.41842,3.13487 4.41842,0.99742 z m 158.31799,-2.04161 c 0.79075,-2.06066 -1.62813,-6.14316 -3.63984,-6.14316 -1.59011,0 -2.73648,3.83205 -1.84293,6.16059 1.02045,2.65924 4.45984,2.6483 5.48277,-0.0174 z m 55.08454,-9.64016 c 13.44895,-14.20789 20.00449,-26.69686 22.93886,-43.70083 1.73166,-10.03462 1.72585,-13.01573 -0.0468,-24.02818 -1.11306,-6.91473 -2.3298,-12.87832 -2.70389,-13.25239 -0.79308,-0.79309 -1.36032,-0.3974 -19.79218,13.80642 -11.63769,8.96814 -13.86549,11.27415 -13.22585,13.69021 2.76186,10.43225 4.18334,12.80958 10.78195,18.03211 6.37077,5.04219 7.04109,6.10596 7.41262,11.76328 0.34658,5.27756 -0.19216,6.86272 -3.55632,10.46406 -5.66154,6.0607 -10.40042,6.88838 -17.59297,3.07274 -12.22847,-6.48718 -16.56468,-10.68585 -19.88844,-19.25761 -1.74099,-4.48988 -3.56237,-8.16343 -4.0475,-8.16343 -0.48514,0 -2.28214,1.13371 -3.99335,2.51935 l -3.11128,2.51937 12.23668,15.65466 c 6.73017,8.61007 14.32702,18.56542 16.88188,22.12301 2.55488,3.55759 5.08979,6.46835 5.63314,6.46835 0.54335,0 5.97642,-5.27 12.07347,-11.71112 z M 310.33093,488.8546 c 0.77667,-2.0428 2.05933,-6.81726 2.85034,-10.60991 2.46296,-11.80905 4.30742,-10.87109 3.26562,1.66066 l -0.93893,11.29442 h 3.99334 c 6.02454,0 48.78492,-9.69411 50.55114,-11.46033 0.17748,-0.17748 3.28364,-7.34875 6.90256,-15.93614 6.44223,-15.28679 6.77963,-15.7672 16.12691,-22.96233 5.25086,-4.04188 10.36108,-7.81306 11.35606,-8.38036 0.99496,-0.56733 2.71633,-5.91086 3.82525,-11.87452 1.10893,-5.96367 2.75485,-13.30727 3.65759,-16.31912 l 1.64138,-5.47608 0.42433,6.44443 c 0.23339,3.54445 -0.1403,9.55103 -0.83043,13.34795 -0.73421,4.03966 -0.74652,6.90352 -0.0296,6.90352 0.67382,0 5.3576,-2.77227 10.40841,-6.16059 5.05081,-3.38833 10.22673,-6.1606 11.50203,-6.1606 2.27671,0 10.23466,8.76414 13.26144,14.60491 0.85705,1.65384 1.14417,4.93827 0.64841,7.41712 -0.71148,3.55736 -0.49038,4.29564 1.10326,3.6841 1.61589,-0.62007 15.46271,-10.88883 40.17147,-29.79106 6.77622,-5.18381 12.87548,-12.56385 13.27771,-16.06588 0.37873,-3.29732 0.98408,-3.76669 4.52126,-3.5056 2.98218,0.22011 5.29061,-0.86806 8.55638,-4.03337 4.7294,-4.58392 5.60103,-8.57595 2.72984,-12.50255 -1.88082,-2.57217 -3.09081,-1.87511 -34.96945,20.14555 l -11.38512,7.86443 -5.04313,-2.46519 c -4.53039,-2.21457 -5.04313,-3.00906 -5.04313,-7.8143 0,-5.31806 0.1191,-5.43573 20.53531,-20.28118 11.29442,-8.21264 20.99393,-15.38185 21.55446,-15.93157 0.56053,-0.5497 -0.70716,-3.0673 -2.81709,-5.59466 l -3.83623,-4.59519 -21.80321,14.84864 c -11.99177,8.16675 -22.9979,14.75865 -24.45807,14.64866 -4.24859,-0.32004 -8.09282,-5.13528 -7.9555,-9.96496 0.0679,-2.38749 0.31684,-4.47979 0.55325,-4.64955 0.2364,-0.16977 9.84208,-7.27819 21.34596,-15.79651 20.18053,-14.94316 20.84385,-15.5894 18.86046,-18.37478 -1.13064,-1.5878 -4.75828,-6.8913 -8.06144,-11.78555 -3.30316,-4.89425 -9.50568,-13.77344 -13.78339,-19.73154 -4.27771,-5.95811 -8.32221,-11.80597 -8.98777,-12.99525 -1.0296,-1.8398 -2.50167,-1.25489 -9.86863,3.9212 -34.14774,23.99248 -38.3395,26.0082 -43.803,21.06379 -3.22207,-2.91593 -3.17613,-7.53952 0.13802,-13.8913 1.45288,-2.78455 3.32579,-7.68105 4.16202,-10.88114 1.85787,-7.10975 4.14854,-7.59582 4.14854,-0.88029 0,3.39118 0.53607,4.73044 1.71128,4.27535 1.82589,-0.70707 21.32853,-14.18154 27.03396,-18.6779 l 3.41835,-2.69395 -6.95068,-10.00677 c -7.55042,-10.87021 -10.12441,-12.19262 -16.90613,-8.68565 -3.6531,1.88905 -4.19979,2.90389 -4.19979,7.7961 0,6.73423 -2.63799,16.20967 -4.51281,16.20967 -0.83175,0 -0.995,-3.38084 -0.42969,-8.89863 0.50143,-4.89425 0.59736,-8.89864 0.21317,-8.89864 -1.68076,0 -36.63788,22.67642 -42.18835,27.36726 -0.58052,0.49061 0.68986,3.31253 2.82309,6.27093 17.26586,23.94461 39.89664,58.23273 40.85945,61.90656 1.62797,6.21191 -2.23015,15.20956 -8.82664,20.58495 -15.3144,12.47949 -14.50388,11.31962 -12.03666,17.2245 2.79535,6.69019 2.84696,21.67942 0.1024,29.7343 -2.81966,8.27524 -9.06242,15.52776 -17.56201,20.40264 -5.67458,3.25461 -8.66414,4.04147 -15.39425,4.05183 -10.73971,0.0166 -15.88619,-1.819 -25.32691,-9.03299 l -7.66762,-5.85909 -5.33808,3.64047 c -15.71415,10.71673 -28.75236,18.10956 -31.93857,18.10956 -3.50793,0 -8.19972,-3.39452 -32.64071,-23.61561 -5.23305,-4.32953 -9.9081,-7.87187 -10.389,-7.87187 -0.4809,0 -0.87437,1.21438 -0.87437,2.6986 0,3.0511 10.35752,18.64391 35.26435,53.08899 l 17.07616,23.6156 h 7.40463 c 6.79364,0 7.52116,-0.30648 8.81677,-3.71419 z m 73.65464,-11.58405 c 9.32186,-5.60283 31.4943,-22.0254 32.19213,-23.84393 0.90031,-2.34619 -7.65421,-14.80014 -10.55619,-15.36802 -1.21948,-0.23865 -6.19599,2.53362 -11.05892,6.16059 -8.43997,6.29484 -9.06875,7.17505 -13.8384,19.37181 -4.47341,11.4392 -5.28779,16.65661 -2.59993,16.65661 0.49947,0 3.13707,-1.33967 5.86131,-2.97706 z m 46.44114,-32.53012 c 4.28821,-2.96379 9.64493,-6.92468 11.90381,-8.80198 l 4.10707,-3.41327 -3.17459,-6.07637 c -1.74602,-3.342 -4.63291,-6.85682 -6.41531,-7.81074 -2.95725,-1.58267 -4.26625,-1.05201 -14.96492,6.06665 -6.90571,4.59489 -11.72423,8.73832 -11.72423,10.08161 0,3.14707 8.49071,15.33693 10.68503,15.34018 0.98252,10e-4 5.29493,-2.42227 9.58314,-5.38608 z m -67.24624,-17.96114 c 7.70248,-2.88904 14.04297,-8.47133 17.4988,-15.40628 11.66982,-23.41826 -6.83756,-48.01667 -32.79642,-43.59019 -7.43916,1.26853 -7.5657,4.2053 -0.40592,9.42049 3.227,2.35054 8.87616,7.0691 12.55369,10.48568 6.52719,6.06403 6.66916,6.36533 5.96071,12.65073 -0.51799,4.59547 -1.64833,7.14834 -3.94841,8.91737 -5.76202,4.43168 -9.64189,3.22686 -22.61093,-7.02144 -6.65455,-5.25851 -12.71525,-9.35304 -13.46821,-9.09894 -2.07201,0.69921 -1.31791,13.46393 1.06798,18.07771 6.79071,13.1318 23.47852,20.31721 36.14871,15.56487 z m 129.90939,-44.7589 c 11.60426,-8.09434 21.08164,-15.33303 21.06089,-16.08599 -0.0208,-0.75296 -1.27175,-2.85106 -2.77999,-4.66242 l -2.74223,-3.2934 -11.24468,7.68909 c -19.3922,13.26033 -30.36078,22.07411 -30.88627,24.8186 -0.41461,2.16533 2.82561,6.25109 4.95742,6.25109 0.29493,0 10.03062,-6.62264 21.63486,-14.71697 z m 36.77833,-14.54693 c -0.58412,-2.3273 1.13995,-4.6082 8.28146,-10.9561 8.15561,-7.24934 15.65312,-17.83814 13.88347,-19.60777 -0.38201,-0.38201 -5.8155,2.66521 -12.07443,6.7716 -14.10058,9.25119 -17.53262,11.08073 -18.66404,9.94931 -0.969,-0.96902 0.57022,-2.25397 16.72766,-13.96427 6.83409,-4.95309 11.99727,-7.73844 14.03246,-7.57 5.78984,0.47919 7.16552,2.75988 -28.15818,-46.68247 -24.78005,-34.68449 -38.00093,-52.60568 -42.28273,-57.31518 l -3.33835,-3.6718 -15.79702,10.85916 c -8.68835,5.97254 -16.31393,10.85916 -16.94572,10.85916 -3.71089,0 0.51196,-4.56965 11.90113,-12.87852 12.07629,-8.81014 15.6964,-13.13287 10.99825,-13.13287 -2.25103,0 -14.70011,5.23388 -29.28074,12.3103 l -10.02423,4.86506 10.57599,15.02792 c 44.03413,62.57018 80.65413,113.70591 84.52494,118.02962 3.277,3.66042 6.82777,1.83901 5.64008,-2.89315 z m -63.97495,-5.38629 c 33.11156,-22.57505 31.19285,-20.75332 27.49919,-26.10931 -1.61921,-2.34794 -3.0693,-4.45145 -3.22243,-4.67448 -0.44374,-0.64629 -35.12514,24.20602 -39.2831,28.14983 -3.61961,3.43319 -4.77325,7.06993 -2.85212,8.99105 2.35065,2.35065 8.07563,0.31273 17.85846,-6.35709 z m 137.53165,-4.57908 c 1.37698,-1.24614 2.50358,-3.17969 2.50358,-4.29678 0,-2.83672 -25.93943,-41.03464 -63.40975,-93.376 -45.02306,-62.89159 -51.84673,-71.97876 -54.91849,-73.13586 -3.76978,-1.42003 -7.19997,0.61237 -8.98194,5.32181 -1.10397,2.9176 0.78126,5.90908 27.63808,43.85619 6.39485,9.03553 23.8207,33.6779 38.72413,54.76082 50.09248,70.86261 48.78013,69.13553 52.53351,69.13553 1.87401,0 4.53391,-1.01956 5.91088,-2.26571 z m -0.94323,-38.43498 c -9.38773,-13.94076 -39.77326,-57.37937 -51.97118,-74.29703 -4.61464,-6.40017 -14.30999,-19.95347 -21.54522,-30.11845 -14.08626,-19.79015 -19.16711,-25.46534 -21.50491,-24.02049 -3.66483,2.26499 -1.60911,5.68265 32.56441,54.13894 41.31446,58.58179 56.79124,79.91155 62.34215,85.91863 3.65143,3.95148 4.35629,4.22872 6.16155,2.42347 1.80526,-1.80526 1.11351,-3.412 -6.0468,-14.04507 z m -329.98655,5.51082 c -8.22016,-7.39441 -12.59104,-9.56668 -16.34831,-8.12488 -2.72225,1.04462 -2.62303,5.53888 0.17429,7.89485 3.02844,2.55061 21.40812,9.1461 23.01912,8.26033 0.71068,-0.39076 -2.36961,-4.00438 -6.8451,-8.0303 z m 19.18859,-13.52352 c 14.07942,-15.83959 36.31766,-31.76635 46.20682,-33.09275 4.97275,-0.66699 5.6433,-0.23263 17.39835,11.27031 6.72445,6.58022 12.9615,11.71896 13.86012,11.41943 2.00922,-0.66975 -20.03736,-33.43758 -24.98004,-37.12783 -3.16795,-2.36522 -3.79953,-2.41053 -7.41156,-0.53183 -11.69772,6.0843 -56.6558,50.13714 -56.6558,55.51502 0,3.61661 4.07225,0.99637 11.58211,-7.45235 z m 120.7113,-9.31659 c 9.82819,-5.62039 36.09612,-25.62939 36.09612,-27.4954 0,-0.98373 -1.13992,-3.19633 -2.53314,-4.9169 l -2.53316,-3.12831 -10.13028,7.15534 c -5.57167,3.93544 -15.20786,10.66543 -21.41377,14.95556 -10.02761,6.93208 -11.19642,8.17965 -10.50137,11.20907 0.69768,3.04087 2.75332,5.43981 4.67208,5.45235 0.37648,0.003 3.23107,-1.45181 6.34352,-3.23171 z m -30.30625,-47.72685 c 20.12773,-21.91594 37.66836,-53.03209 43.87353,-77.82938 11.46295,-45.80849 15.38264,-57.2703 25.3075,-74.00313 6.13556,-10.34427 15.33605,-19.130595 37.3575,-35.675874 15.6919,-11.78974 17.34512,-12.998262 52.80412,-38.600638 19.04574,-13.751552 23.91557,-18.6033922 18.67238,-18.6033922 -2.20598,0 -24.5835,14.9730702 -51.37576,34.3761582 -9.41202,6.816226 -18.34488,13.252247 -19.8508,14.302268 -31.56043,22.005849 -32.61947,22.947416 -42.25792,37.569865 -9.1402,13.866573 -13.79159,26.066983 -23.48708,61.605923 -1.33522,4.89425 -3.23429,11.6709 -4.22013,15.05923 -0.98586,3.38832 -3.09254,10.67997 -4.68152,16.20368 -4.78681,16.64016 -16.75409,37.63719 -34.85024,61.14597 -10.56773,13.72858 -10.94669,14.37472 -8.43056,14.37472 1.11289,0 6.12542,-4.46643 11.13898,-9.9254 z m 47.51689,-24.11556 c 10.01053,-5.22681 24.8236,-12.11187 32.91794,-15.30013 8.09433,-3.18824 14.71697,-6.51832 14.71697,-7.40014 0,-0.88183 -0.9045,-2.79918 -2.01,-4.26078 -1.10548,-1.46159 -2.02957,-5.52896 -2.05353,-9.0386 -0.0374,-5.47174 0.55675,-6.88625 4.16857,-9.9254 5.17931,-4.3581 11.82663,-4.63706 16.82413,-0.70602 7.17517,5.644 8.29792,4.0683 13.24053,-18.58196 4.12698,-18.9125 6.5626,-26.09472 14.48182,-42.70467 12.42677,-26.064154 21.45923,-39.438504 29.45788,-43.618277 3.5625,-1.861615 3.61248,-2.097419 4.25486,-20.070832 0.54249,-15.178676 1.26751,-19.960672 4.38302,-28.909168 2.05315,-5.897147 3.38798,-11.067097 2.9663,-11.48878 -0.80193,-0.801934 -10.93796,5.900807 -38.48238,25.447606 -69.51913,49.333999 -77.60112,59.166701 -89.61142,109.022941 -10.3807,43.09156 -15.09336,54.8177 -32.20996,80.14531 -5.66578,8.38371 -9.96722,15.78387 -9.55875,16.44479 0.40848,0.66094 4.69601,-1.21801 9.52788,-4.17544 4.83185,-2.95743 16.97562,-9.65362 26.98614,-14.88045 z m 276.21157,16.98817 c 1.92832,-2.32349 2.22951,-1.7378 -9.53542,-18.54174 -52.76008,-75.35757 -70.98135,-100.53422 -73.11476,-101.02398 -0.96063,-0.22053 -2.49534,0.50119 -3.41045,1.60383 -1.37261,1.65389 3.10679,8.79328 25.59064,40.78708 32.66971,46.48799 50.58284,71.92909 53.54345,76.04506 2.55954,3.55835 4.63062,3.89615 6.92654,1.12975 z m -37.75141,-2.45575 c -1.48699,-2.54664 -30.63314,-44.66929 -42.80424,-61.86165 -5.82983,-8.23497 -11.29726,-15.20519 -12.14984,-15.48938 -2.28325,-0.76108 -3.61728,8.41123 -1.73487,11.92851 3.0459,5.69134 38.41782,49.1835 49.86749,61.31546 5.21855,5.52952 8.97135,7.78901 6.82146,4.10706 z m 55.50914,-25.2161 c -1.92055,-3.65175 -8.40917,-13.06983 -31.90904,-46.31522 -37.20887,-52.63958 -39.37823,-55.44533 -42.86941,-55.44533 -0.98857,0 -1.7974,1.12786 -1.7974,2.50637 0,2.18347 13.13891,22.50317 26.04604,40.28091 2.3212,3.19711 11.43944,15.97792 20.26275,28.40178 27.9688,39.38207 27.60122,38.9364 30.07428,36.46333 1.9016,-1.90158 1.92442,-2.59926 0.19278,-5.89184 z m 21.22603,-19.65692 c -0.0511,-2.07954 -8.31134,-15.0002 -21.41901,-33.50341 -33.33034,-47.05013 -42.43667,-58.81033 -45.92217,-59.30535 -6.88342,-0.9776 -3.31372,5.71577 23.59724,44.24613 13.5448,19.39305 32.60978,45.28457 36.07007,48.98558 4.24809,4.54361 7.79099,4.34834 7.67387,-0.42295 z m 19.89387,-19.76498 c 1.36762,-1.64788 -0.31699,-4.75909 -9.45126,-17.45502 -17.94688,-24.94477 -37.00822,-51.81755 -42.76128,-60.28512 -5.48604,-8.074544 -7.79115,-9.350264 -10.65655,-5.897664 -1.32233,1.593303 -0.61051,3.376214 3.6894,9.240884 2.93032,3.99668 8.93758,12.5032 13.34948,18.90337 23.95591,34.75191 40.70138,57.49886 42.3285,57.49886 1.01059,0 2.58636,-0.90239 3.50171,-2.00531 z M 607.80363,166.39966 c 0.45403,-1.69416 0.83392,-4.21301 0.8442,-5.59742 0.0159,-2.13581 -17.13168,-27.07434 -44.05158,-64.066471 -9.51017,-13.068439 -9.97029,-13.337406 -14.83817,-8.673688 -4.76066,4.561006 -12.82287,17.805689 -20.49198,33.664399 -7.8184,16.16747 -7.31644,18.10807 2.42197,9.36332 4.34545,-3.90207 10.35202,-8.45081 13.34795,-10.10832 4.70569,-2.60344 5.83364,-4.19985 8.2868,-11.72844 3.34123,-10.254001 5.53187,-8.17764 3.13984,2.97603 -1.3538,6.31259 -1.25086,7.12884 1.05144,8.33669 4.07333,2.13698 30.82968,29.55096 38.72159,39.67331 7.62725,9.78289 10.22628,11.16703 11.56794,6.16059 z m 169.75229,-44.93479 c 5.0741,-3.99128 4.91765,-10.71195 -0.38758,-16.64954 -3.38452,-3.78793 -4.93106,-4.47091 -10.12392,-4.47091 -4.08597,0 -7.08091,0.8613 -8.98416,2.58374 -3.19952,2.89552 -5.00684,10.0746 -3.62908,14.41553 2.14368,6.75414 16.52027,9.31627 23.12474,4.12118 z"
       style="fill:#ffffff;stroke-width:1.36902046" />
    <path
       inkscape:connector-curvature="0"
       id="path3726"
       d="M 518.21778,359.08337 C 500.91803,335.39002 467.59157,288.55461 440.01382,249.17928 l -7.9427,-11.34054 8.55225,-3.94253 c 17.20956,-7.93347 24.72999,-11.0468 25.30215,-10.47464 0.3219,0.3219 -5.0093,4.69158 -11.84712,9.7104 -11.8152,8.67212 -14.25509,11.72505 -10.98556,13.74573 2.73401,1.68971 7.52526,-0.64397 21.06107,-10.25825 12.78728,-9.08261 13.70619,-9.50431 16.06295,-7.37147 2.91572,2.63869 3.23413,4.57594 0.75212,4.57594 -1.62469,0 -17.58244,10.60909 -26.03666,17.30978 -3.92582,3.11155 -5.0432,8.70161 -1.73935,8.70161 2.56798,0 25.13442,-15.13607 29.44827,-19.75194 l 3.34717,-3.58151 2.96997,3.72471 2.96998,3.7247 -4.5238,2.42461 c -8.16027,4.37365 -29.45522,20.61428 -28.9636,22.08915 0.26443,0.79327 1.47306,2.06823 2.68585,2.83324 1.69303,1.06794 4.05834,0.17625 10.18617,-3.84005 13.65769,-8.95152 22.35581,-16.08058 22.35581,-18.32302 0,-1.30349 1.33098,-0.34898 3.37317,2.41905 l 3.37317,4.57207 -5.08444,2.68358 c -10.96953,5.78972 -27.67329,19.37167 -27.67329,22.50136 0,5.09464 11.84448,-0.79284 27.89137,-13.86382 l 8.04057,-6.54944 3.13429,3.91797 3.13429,3.91797 -3.07536,0.84749 c -1.69145,0.46612 -9.03035,5.2456 -16.30868,10.62107 -10.57653,7.81136 -13.23333,10.45846 -13.23333,13.18497 0,1.87626 0.46204,3.40397 1.02676,3.3949 3.89272,-0.0625 33.19471,-20.89602 33.20555,-23.6089 0.004,-0.93582 1.52173,0.14669 3.37332,2.40557 3.71947,4.53766 4.23304,6.1606 1.9495,6.1606 -1.74405,0 -26.39757,16.96088 -30.24289,20.8062 -2.92189,2.92189 -2.17875,5.20519 1.69413,5.20519 5.43588,0 31.43326,-18.97163 31.43326,-22.93847 0,-1.48738 1.2466,-0.50497 3.42255,2.69724 1.88241,2.7702 3.42255,5.30044 3.42255,5.62275 0,0.32231 -1.69416,0.94099 -3.7648,1.37485 -5.74387,1.20351 -28.3218,18.8031 -28.84465,22.48451 -0.64798,4.56252 3.27277,3.94731 12.09242,-1.89742 13.6117,-9.02038 21.88539,-15.85672 21.92959,-18.11986 0.0361,-1.84932 0.40324,-1.76261 2.15385,0.50874 5.25562,6.81897 5.29985,6.73314 -8.05168,15.62333 -17.37376,11.56842 -20.72145,14.47233 -19.71316,17.0999 0.46154,1.20274 1.73097,2.18679 2.82096,2.18679 2.59983,0 21.41378,-12.61715 27.81215,-18.65159 l 5.01387,-4.7287 3.02954,3.7994 3.02953,3.7994 -6.92506,3.787 c -10.05598,5.49915 -27.0108,18.5836 -27.0108,20.8449 0,3.37814 2.48169,3.65721 7.90743,0.8892 7.83566,-3.99746 27.6871,-19.05708 27.6871,-21.00388 0,-0.93088 1.54015,0.57403 3.42255,3.34423 4.10875,6.04656 4.09296,5.91786 0.75685,6.16916 -2.84328,0.21418 -19.50261,11.10914 -27.45275,17.95371 -4.47935,3.85644 -4.64333,4.27705 -2.51659,6.45495 2.13685,2.18825 2.88494,1.94216 12.32118,-4.05299 5.52542,-3.51048 11.43234,-7.35962 13.12651,-8.55366 2.46863,-1.73987 3.08118,-1.798 3.08478,-0.29271 0.002,1.03304 -4.56241,6.19067 -10.14418,11.4614 -7.47454,7.05803 -10.27139,10.66378 -10.6144,13.68428 -0.44469,3.91592 -0.87181,3.54495 -9.45774,-8.21412 z"
       style="fill:#ffffff;stroke-width:1.36902046" />
    <path
       inkscape:connector-curvature="0"
       id="path3730"
       d="m 455.3209,253.69102 c 4.02468,-4.28407 25.05937,-18.49808 27.3745,-18.49808 2.99535,0 -1.07399,3.77553 -14.15594,13.13389 -12.74138,9.11473 -19.20689,11.73848 -13.21856,5.36419 z"
       style="fill:#ffffff;stroke-width:1.36902046" />
    <path
       inkscape:connector-curvature="0"
       id="path3732"
       d="m 522.75297,365.59866 c -4.80059,-6.14966 -22.33497,-30.54861 -45.50776,-63.32372 -9.31633,-13.17682 -22.86077,-32.27466 -30.09876,-42.43963 -7.23799,-10.16498 -13.63533,-19.26186 -14.21632,-20.21529 -0.75331,-1.23622 3.14787,-3.69668 13.59949,-8.57712 20.60603,-9.6221 23.84883,-10.08381 13.00479,-1.85162 -15.25796,11.58299 -18.80112,15.17884 -16.87534,17.12633 2.27817,2.30386 8.19856,-0.56648 23.28813,-11.29061 l 11.59593,-8.2412 3.19844,3.00478 3.19845,3.00478 -6.43003,3.24926 c -8.30698,4.19771 -24.78789,16.39872 -25.83419,19.12533 -0.44561,1.16125 -0.16904,2.75253 0.61462,3.53618 1.58389,1.5839 16.85073,-7.64619 27.91515,-16.87706 l 6.38757,-5.32905 2.74379,3.8533 2.7438,3.8533 -6.39333,3.64606 c -9.84047,5.61194 -25.47837,17.88373 -25.95327,20.36675 -0.23389,1.22294 0.52178,2.58694 1.67928,3.03111 2.52798,0.97008 25.01723,-13.71745 29.9133,-19.5361 l 3.35434,-3.98641 3.15231,4.26373 c 1.9419,2.62655 2.5644,4.45971 1.6212,4.77411 -6.65842,2.21947 -31.79716,21.44765 -31.79716,24.32109 0,4.86757 10.52105,-0.30894 27.27439,-13.41939 l 8.79261,-6.88073 3.12411,3.91801 3.1241,3.918 -4.06934,1.71103 c -6.24246,2.62476 -27.17349,18.61259 -28.10683,21.46896 -1.87007,5.72307 1.9981,4.86902 13.92184,-3.0738 6.71999,-4.47643 14.12174,-10.0132 16.44833,-12.30394 l 4.23017,-4.16498 3.07774,4.16287 c 1.69276,2.28957 2.86948,4.28893 2.61494,4.44302 -25.279,15.30243 -38.22768,26.88502 -30.05592,26.88502 4.27965,0 28.17612,-16.9553 30.96213,-21.9686 1.22236,-2.19958 1.78186,-1.88811 5.22262,2.90745 3.74207,5.21551 3.76835,5.37094 0.90824,5.37094 -3.50357,0 -20.67507,11.5943 -27.31018,18.44 -5.86122,6.04723 -4.29421,9.13344 2.78002,5.47521 6.83876,-3.53646 22.79094,-15.44529 25.78069,-19.24614 l 2.6504,-3.36945 3.0243,4.24724 c 1.66337,2.33598 2.48651,4.70682 1.82921,5.26854 -0.6573,0.56172 -7.38143,5.37906 -14.9425,10.7052 -15.89659,11.19782 -18.47055,13.72233 -15.72265,15.42063 2.43446,1.50458 4.62509,0.60189 14.41083,-5.93832 13.35344,-8.92462 18.48178,-13.47994 18.48178,-16.41669 0,-2.1647 0.85053,-1.61208 3.98129,2.5868 l 3.9813,5.33959 -5.23694,2.97464 c -12.36072,7.02101 -28.73704,19.89306 -28.73704,22.58777 0,4.82315 19.41291,-5.66359 31.25167,-16.88198 l 5.16882,-4.89795 3.00957,4.39218 c 3.63584,5.30615 3.73097,6.27805 0.61379,6.27043 -2.56855,-0.006 -22.08592,12.74919 -28.25276,18.46442 -3.92086,3.63373 -3.74138,6.1838 0.43524,6.1838 1.36487,0 7.02706,-2.95789 12.58264,-6.57308 13.91143,-9.05262 13.5236,-8.85071 13.5236,-7.0407 0,0.88386 -4.69793,6.4346 -10.43984,12.33496 -6.84442,7.03329 -10.16539,11.44313 -9.64293,12.80463 1.65509,4.3131 -1.73725,3.34649 -5.59387,-1.59389 z"
       style="fill:#ffffff;stroke-width:1.36902046" />
    <path
       inkscape:connector-curvature="0"
       id="path3736"
       d="m 520.69141,362.87535 c -3.31463,-4.34122 -19.79299,-27.29898 -36.61858,-51.01726 -16.82559,-23.71828 -35.3841,-49.84918 -41.24113,-58.06867 -5.85704,-8.21948 -10.38115,-15.37816 -10.05358,-15.90818 0.94616,-1.53092 32.23326,-15.37381 33.00438,-14.60269 0.38231,0.38232 -4.13348,4.37082 -10.0351,8.86334 -13.30214,10.12605 -15.123,12.1641 -12.86866,14.40349 1.99601,1.98277 9.80144,-2.03449 24.93697,-12.83442 l 9.79211,-6.98715 3.55006,3.55005 c 2.68579,2.6858 3.01714,3.55006 1.36103,3.55006 -2.44046,0 -19.82342,11.17244 -27.07802,17.4037 -3.26221,2.80203 -4.41482,4.73479 -3.79181,6.35832 0.82845,2.15889 1.30061,2.12568 6.34152,-0.44599 2.99554,-1.52821 10.69789,-6.73932 17.11635,-11.58024 l 11.66992,-8.80167 2.65193,3.72429 2.65193,3.72429 -6.39333,3.64104 c -9.70307,5.52596 -25.50311,18.07608 -26.00225,20.65384 -0.84245,4.3508 5.43783,2.40296 16.95029,-5.25717 6.23515,-4.14872 12.87483,-9.37117 14.75484,-11.60544 l 3.4182,-4.0623 2.72798,4.30854 2.72797,4.30853 -7.49788,4.51499 c -10.70056,6.44354 -25.10915,18.18677 -25.10915,20.46435 0,4.77953 10.64352,-0.49082 27.27439,-13.50543 l 8.79261,-6.88073 3.15387,3.95534 c 3.09467,3.88109 3.10267,3.97427 0.42598,4.96445 -3.98151,1.47285 -18.70057,11.66885 -24.79911,17.17851 -5.33492,4.81978 -6.8113,8.5447 -3.38671,8.5447 2.66234,0 22.50809,-13.06092 28.31401,-18.63408 l 4.86502,-4.66998 3.1274,4.23004 c 1.72007,2.32652 2.91914,4.358 2.6646,4.5144 -24.90967,15.30569 -37.96503,26.88081 -30.31836,26.88081 3.39009,0 22.93321,-13.1997 28.24002,-19.07371 l 4.56162,-5.04916 3.63086,5.05118 3.63086,5.05119 -3.85159,0.77032 c -3.90617,0.78124 -23.41755,14.55079 -28.0524,19.79712 -2.39483,2.71078 -2.14683,5.77424 0.46744,5.77424 2.34105,0 25.85585,-16.52205 29.24169,-20.5459 l 3.44172,-4.09024 2.99737,4.20942 c 1.64856,2.31518 2.45958,4.66862 1.80228,5.22987 -0.6573,0.56124 -7.4426,5.45229 -15.07844,10.86899 -7.63583,5.4167 -14.6809,10.80956 -15.6557,11.98412 -3.03617,3.65836 1.19207,4.86609 6.86437,1.9607 8.7417,-4.47757 26.09584,-17.96183 26.15287,-20.32092 0.0397,-1.64465 1.19113,-0.97388 4.0332,2.34965 l 3.97757,4.65139 -7.58253,4.56596 c -20.61974,12.41656 -32.84405,24.64418 -21.88862,21.89454 4.46218,-1.11994 22.41799,-13.22444 27.44536,-18.50168 l 3.9871,-4.18525 3.20026,4.33771 c 3.86024,5.23225 3.99591,6.5438 0.67693,6.5438 -5.00365,0 -32.48359,20.90144 -30.8836,23.49028 1.51989,2.45923 6.06826,0.89633 15.77627,-5.42099 13.8576,-9.0176 13.5236,-8.84197 13.5236,-7.11123 0,0.84508 -4.6781,6.44748 -10.39577,12.44979 -6.3936,6.71188 -10.10595,11.66858 -9.64294,12.87517 0.41407,1.07903 0.20705,2.29918 -0.46003,2.71147 -0.66707,0.41228 -3.92483,-2.80231 -7.23946,-7.14351 z"
       style="fill:#ffffff;stroke-width:1.36902046" />
    <path
       inkscape:connector-curvature="0"
       id="path3740"
       d="m 461.64695,269.91592 c -1.96744,-0.45763 -1.37428,-1.97897 1.71127,-4.38907 1.60005,-1.24979 3.25647,-2.5848 3.68094,-2.96669 0.42447,-0.3819 1.46121,-1.1564 2.30388,-1.72112 0.84266,-0.56472 2.18953,-1.51528 2.99304,-2.11235 4.59269,-3.41272 14.90478,-10.20884 15.49037,-10.20884 0.37814,0 0.68753,-0.30803 0.68753,-0.68451 0,-0.37648 0.92408,-0.68451 2.05353,-0.68451 2.61219,0 2.70683,1.51395 0.22492,3.59821 -1.00573,0.84459 -2.32255,1.99766 -2.92627,2.56238 -0.60372,0.56473 -2.86114,2.23308 -5.0165,3.70746 -2.15536,1.47438 -3.91883,2.93752 -3.91883,3.25143 0,0.3139 -0.28222,0.57073 -0.62716,0.57073 -0.34494,0 -2.88619,1.48867 -5.64721,3.30817 -7.44266,4.90465 -9.68132,6.07765 -11.00951,5.76871 z"
       style="fill:#ffffff;stroke-width:0.68451023" />
    <path
       inkscape:connector-curvature="0"
       id="path3742"
       d="m 469.34769,280.7754 c 0,-1.20796 3.96856,-4.68944 10.24115,-8.9842 1.63206,-1.11745 8.16265,-5.83719 9.26739,-6.69766 0.37648,-0.29324 1.91663,-1.2772 3.42255,-2.18657 1.50592,-0.90938 2.89206,-1.85024 3.0803,-2.0908 0.29521,-0.37727 4.55841,-2.03066 5.23597,-2.03066 0.13206,0 0.24011,0.41255 0.24011,0.91678 0,1.35651 -6.25669,6.83602 -13.02194,11.4044 -0.83629,0.56472 -1.87613,1.3348 -2.31076,1.71128 -1.35015,1.1695 -5.12978,3.7648 -5.48283,3.7648 -0.18461,0 -1.70749,0.92585 -3.38418,2.05743 -3.33084,2.24796 -7.28776,3.40727 -7.28776,2.1352 z"
       style="fill:#ffffff;stroke-width:0.68451023" />
    <path
       inkscape:connector-curvature="0"
       id="path3746"
       d="m 478.58932,293.69673 c -0.54233,-0.87751 0.91763,-2.95175 3.46863,-4.92805 1.10369,-0.85505 2.31474,-1.79878 2.69122,-2.09717 1.34663,-1.06732 13.23787,-9.7665 14.72636,-10.77325 0.83494,-0.56472 2.17549,-1.49693 2.979,-2.07157 3.76718,-2.69416 7.27926,-3.40771 7.27926,-1.47893 0,0.93885 -3.03595,4.23501 -3.90068,4.23501 -0.42724,0 -0.87948,0.25157 -1.00497,0.55903 -0.1255,0.30747 -2.15336,1.90826 -4.50636,3.55731 -2.35301,1.64905 -4.27819,3.24566 -4.27819,3.54803 0,0.30236 -0.3205,0.54976 -0.71223,0.54976 -0.62784,0 -4.5328,2.46919 -5.44836,3.44511 -0.50217,0.53528 -10.10299,6.13803 -10.51806,6.13803 -0.19432,0 -0.54335,-0.30749 -0.77562,-0.68331 z"
       style="fill:#ffffff;stroke-width:0.68451023" />
    <path
       inkscape:connector-curvature="0"
       id="path3748"
       d="m 486.73341,305.9046 c -0.48731,-0.78848 0.60824,-1.93584 5.12179,-5.36397 1.2392,-0.9412 2.61153,-2.0193 3.04962,-2.39578 0.43808,-0.37648 2.18265,-1.60827 3.87681,-2.73732 3.04581,-2.02981 10.65482,-7.36978 11.97893,-8.40675 1.7236,-1.34983 5.71349,-3.5729 6.41251,-3.5729 1.32598,0 0.85032,2.43027 -0.7653,3.91013 -0.84708,0.7759 -4.46643,3.60117 -8.043,6.27838 -3.57656,2.67721 -6.87488,5.17637 -7.32959,5.55369 -0.45471,0.37732 -0.97832,0.68604 -1.16358,0.68604 -0.18526,0 -1.6614,0.88982 -3.28031,1.97738 -3.82004,2.56624 -7.95343,4.86772 -8.74225,4.86772 -0.34281,0 -0.84484,-0.35848 -1.11563,-0.79662 z"
       style="fill:#ffffff;stroke-width:0.68451023" />
    <path
       inkscape:connector-curvature="0"
       id="path3752"
       d="m 495.35908,317.2185 c 0,-1.62271 1.59389,-3.00508 13.6902,-11.87341 3.57657,-2.62214 6.84792,-5.05867 7.26968,-5.41453 2.28023,-1.92393 8.428,-4.84072 9.40925,-4.46418 0.61508,0.23603 1.10809,0.62722 1.09557,0.8693 -0.0485,0.93712 -2.54302,3.3563 -6.48008,6.28432 -2.25888,1.67995 -4.20974,3.28548 -4.33523,3.56784 -0.12549,0.28236 -0.52901,0.51338 -0.8967,0.51338 -0.55135,0 -4.97177,3.03283 -7.77563,5.33483 -1.63429,1.34176 -10.41912,6.30185 -11.16124,6.30185 -0.4487,0 -0.81582,-0.50373 -0.81582,-1.1194 z"
       style="fill:#ffffff;stroke-width:0.68451023" />
    <path
       inkscape:connector-curvature="0"
       id="path3754"
       d="m 503.84616,329.86246 c -0.60488,-0.97872 1.54592,-2.88358 10.6792,-9.45804 2.07065,-1.49052 4.07284,-2.95514 4.44932,-3.25472 2.75122,-2.18921 14.58446,-9.76397 15.25322,-9.76397 1.38867,0 0.87037,3.00019 -0.73903,4.27792 -0.82967,0.6587 -4.43478,3.34564 -8.01134,5.971 -3.57657,2.62535 -6.81088,5.02249 -7.18736,5.32696 -0.37648,0.30447 -1.91663,1.29762 -3.42255,2.20699 -1.50592,0.90938 -2.89206,1.83744 -3.0803,2.06236 -0.71518,0.85457 -5.59604,3.42812 -6.50157,3.42812 -0.52099,0 -1.1688,-0.35848 -1.43959,-0.79662 z"
       style="fill:#ffffff;stroke-width:0.68451023" />
    <path
       inkscape:connector-curvature="0"
       id="path3756"
       d="m 512.47183,341.33 c 0,-1.43862 7.42064,-7.40398 19.42129,-15.61252 0.70497,-0.4822 1.68407,-1.26177 2.17577,-1.73237 0.4917,-0.4706 1.18249,-0.85564 1.53509,-0.85564 0.3526,0 1.42772,-0.61876 2.38915,-1.37503 2.08727,-1.64184 5.96618,-2.58363 5.96618,-1.44857 0,0.42354 -0.57328,1.34334 -1.27394,2.04401 -1.32637,1.32637 -12.44746,9.94145 -15.14436,11.73175 -0.8507,0.56473 -1.90592,1.3348 -2.34495,1.71128 -1.81592,1.55721 -10.80888,6.47509 -11.86859,6.49045 -0.4706,0.007 -0.85564,-0.42219 -0.85564,-0.95336 z"
       style="fill:#ffffff;stroke-width:0.68451023" />
    <path
       inkscape:connector-curvature="0"
       id="path3758"
       d="m 433.0682,339.21492 c -0.66551,-0.80188 -0.70493,-1.45604 -0.15608,-2.58971 0.4039,-0.83424 0.9137,-3.27641 1.13291,-5.42703 0.38528,-3.78002 1.55458,-7.39529 2.38491,-7.37372 0.22193,0.006 0.83555,0.28402 1.36359,0.61833 2.06267,1.30592 -0.60311,14.80061 -3.082,15.60172 -0.4141,0.13382 -1.1536,-0.23949 -1.64333,-0.82959 z"
       style="fill:#ffffff;stroke-width:0.68451023" />
    <path
       inkscape:connector-curvature="0"
       id="path3760"
       d="m 429.65658,378.44407 c -0.006,-0.63662 0.29754,-1.34787 0.67402,-1.58054 0.86632,-0.53542 0.86632,0.37074 0,1.71127 -0.57184,0.88486 -0.66499,0.86679 -0.67402,-0.13073 z"
       style="fill:#ffffff;stroke-width:0.68451023" />
    <path
       inkscape:connector-curvature="0"
       id="path3762"
       d="m 423.70827,395.85868 c 0.30396,-5.69062 1.30302,-13.20667 3.48025,-26.18251 2.90093,-17.28896 4.93366,-25.53807 6.18457,-25.09794 0.87317,0.30722 0.64497,11.11019 -0.3628,17.17453 -0.38009,2.28723 -1.02652,6.46882 -1.4365,9.29243 -0.40999,2.8236 -0.95461,5.28784 -1.21028,5.47608 -0.25567,0.18824 -0.80569,2.80649 -1.22227,5.81834 -1.01339,7.32677 -2.18779,13.3873 -2.91813,15.05922 -0.32892,0.75296 -0.79217,2.06209 -1.02944,2.90917 -0.23727,0.84708 -0.74054,1.54015 -1.11837,1.54015 -0.43164,0 -0.56805,-2.22606 -0.36703,-5.98947 z"
       style="fill:#ffffff;stroke-width:0.68451023" />
    <path
       inkscape:connector-curvature="0"
       id="path3764"
       d="m 414.31059,391.94191 c -0.62132,-2.47551 0.30187,-9.16115 1.72764,-12.51147 2.37811,-5.58817 3.58968,-2.90791 2.60456,5.76184 -0.65501,5.76453 -1.64436,8.44175 -3.11961,8.44175 -0.43334,0 -0.97901,-0.76145 -1.21259,-1.69212 z"
       style="fill:#ffffff;stroke-width:0.68451023" />
    <path
       inkscape:connector-curvature="0"
       id="path3766"
       d="m 316.18852,465.05426 c -0.4706,-0.18989 -0.85564,-1.09384 -0.85564,-2.00877 0,-1.67406 0.14439,-2.07082 2.33569,-6.41795 0.77775,-1.54292 0.93851,-2.46381 0.45807,-2.62395 -0.9056,-0.30187 -0.97792,-4.49758 -0.10569,-6.13141 0.349,-0.65374 0.81469,-1.76235 1.03487,-2.46359 0.34115,-1.08653 0.56276,-1.14018 1.49923,-0.36298 0.86054,0.71419 1.01581,1.71717 0.7158,4.62392 -0.2107,2.04155 -0.70886,4.03766 -1.107,4.43581 -0.39815,0.39815 -0.72391,2.16394 -0.72391,3.92399 0,6.35816 -0.77172,8.02552 -3.25142,7.02493 z"
       style="fill:#ffffff;stroke-width:0.68451023" />
    <path
       inkscape:connector-curvature="0"
       id="path3770"
       d="m 328.61636,480.46251 c -0.81828,-1.32401 -0.30222,-6.87123 1.00919,-10.84785 0.93616,-2.83875 1.60407,-3.81861 2.71533,-3.98354 1.3117,-0.19468 1.47378,0.10099 1.47378,2.68855 0,1.59901 -0.52474,5.16277 -1.16609,7.91948 -0.89708,3.85595 -1.44044,5.01219 -2.35539,5.01219 -0.65411,0 -1.40868,-0.35498 -1.67682,-0.78883 z"
       style="fill:#ffffff;stroke-width:0.68451023" />
    <path
       inkscape:connector-curvature="0"
       id="path3772"
       d="m 429.1675,539.6685 c -0.53885,-1.40423 0.99653,-16.64736 1.7775,-17.64678 0.31225,-0.39959 0.7773,-2.09738 1.03345,-3.77287 0.51205,-3.34929 1.41259,-4.82553 2.94369,-4.82553 0.80365,0 0.94277,0.8447 0.7046,4.27819 -0.44607,6.43062 -2.56345,19.81238 -3.41175,21.56207 -0.87773,1.81041 -2.42906,2.01653 -3.04749,0.40492 z"
       style="fill:#ffffff;stroke-width:0.68451023" />
    <path
       inkscape:connector-curvature="0"
       id="path3774"
       d="m 426.01439,560.90171 c -1.06839,-1.06838 -0.46093,-8.91853 0.90964,-11.75529 0.76175,-1.57663 1.64993,-2.86661 1.97373,-2.86661 1.89556,0 0.88129,11.80358 -1.19273,13.88035 -0.66841,0.6693 -1.4292,1.003 -1.69064,0.74155 z"
       style="fill:#ffffff;stroke-width:0.68451023" />
    <path
       inkscape:connector-curvature="0"
       id="path3778"
       d="m 465.32404,555.67256 c -1.05654,-1.05653 -0.94024,-2.79728 0.55201,-8.26274 1.35738,-4.97148 2.203,-6.36338 3.412,-5.61619 0.88812,0.5489 1.00857,8.34902 0.13724,8.88754 -0.33381,0.2063 -0.80423,1.42686 -1.04539,2.71235 -0.47174,2.51458 -1.81702,3.51788 -3.05586,2.27904 z"
       style="fill:#ffffff;stroke-width:0.68451023" />
    <path
       inkscape:connector-curvature="0"
       id="path3780"
       d="m 462.04696,570.1143 c 0.23749,-3.07969 0.69065,-5.77495 1.00702,-5.98946 0.31638,-0.21451 0.78395,-0.95468 1.03904,-1.64483 0.2551,-0.69015 0.84869,-1.12184 1.31909,-0.95931 1.39577,0.48225 1.00177,8.89425 -0.55169,11.77885 -0.71508,1.32781 -1.73779,2.4142 -2.2727,2.4142 -0.79633,0 -0.89432,-1.01459 -0.54076,-5.59945 z"
       style="fill:#ffffff;stroke-width:0.68451023" />
    <path
       inkscape:connector-curvature="0"
       id="path3782"
       d="m 475.03004,596.20384 c 0.22946,-4.56353 0.70413,-8.65346 1.05483,-9.08875 0.3507,-0.43528 0.86291,-2.17756 1.13823,-3.87172 0.56354,-3.46764 2.09033,-6.84511 3.09433,-6.84511 0.83594,0 0.89639,11.41407 0.0632,11.92902 -0.33206,0.20522 -0.8244,2.45662 -1.0941,5.0031 -0.2697,2.54647 -0.73252,4.93799 -1.02849,5.31447 -0.29597,0.37648 -0.74653,1.65987 -1.00125,2.85198 -0.25472,1.19211 -0.9538,2.35577 -1.55352,2.5859 -0.97425,0.37385 -1.04595,-0.46536 -0.67321,-7.87889 z"
       style="fill:#ffffff;stroke-width:0.68451023" />
    <path
       inkscape:connector-curvature="0"
       id="path3784"
       d="m 468.53966,637.83306 c -0.28479,-2.00523 0.72577,-13.55818 1.30229,-14.8881 0.24481,-0.56472 0.7728,-2.84492 1.17332,-5.06711 0.76066,-4.22041 2.37654,-6.22179 3.841,-4.75734 0.53732,0.53732 0.56005,2.20867 0.0789,5.80295 -1.03093,7.70157 -2.92168,17.32857 -3.4786,17.71171 -0.27362,0.18824 -0.69637,0.8813 -0.93945,1.54014 -0.62028,1.68118 -1.71707,1.49135 -1.97748,-0.34225 z"
       style="fill:#ffffff;stroke-width:0.68451023" />
    <path
       inkscape:connector-curvature="0"
       id="path3788"
       d="m 516.07102,608.49022 c 0.42106,-6.34216 1.9623,-10.87214 3.69903,-10.87214 0.97893,0 1.06863,0.71732 0.71547,5.72158 -0.4058,5.75028 -1.93713,9.93608 -3.87081,10.58064 -0.74707,0.24903 -0.85149,-0.7939 -0.54369,-5.43008 z"
       style="fill:#ffffff;stroke-width:0.68451023" />
  </g>
  <path
     sodipodi:type="star"
     style="fill:#00ff00"
     id="path64"
     sodipodi:sides="4"
     sodipodi:cx="727.96887"
     sodipodi:cy="169.15118"
     sodipodi:r1="402.49203"
     sodipodi:r2="284.60483"
     sodipodi:arg1="0.78539816"
     sodipodi:arg2="1.5707963"
     inkscape:flatsided="true"
     inkscape:rounded="0.75"
     inkscape:randomized="0"
     d="m 1012.5737,453.75603 c -301.869,301.86903 -267.34065,301.86903 -569.20967,0 -301.86903,-301.86902 -301.86903,-267.34067 -1e-5,-569.20969 301.86903,-301.86903 267.34067,-301.86903 569.20968,0 301.869,301.86902 301.869,267.34066 0,569.20969 z"
     transform="matrix(0.55087392,-0.02466945,0.53827364,0.02524693,2119.7132,268.99511)" />
</svg>
